<?xml version="1.0" standalone="no"?>
<!DOCTYPE svg PUBLIC "-//W3C//DTD SVG 20010904//EN"
 "http://www.w3.org/TR/2001/REC-SVG-20010904/DTD/svg10.dtd">
<svg version="1.0" xmlns="http://www.w3.org/2000/svg"
 width="100.000000pt" height="100.000000pt" viewBox="0 0 100.000000 100.000000"
 preserveAspectRatio="xMidYMid meet">

<g transform="translate(0.000000,100.000000) scale(0.100000,-0.100000)"
fill="#000000" stroke="none">
<path d="M250 865 c0 -9 -10 -15 -26 -15 -15 0 -38 -12 -55 -29 l-29 -29 0
-329 c0 -243 3 -332 12 -341 17 -17 689 -17 706 0 9 9 12 98 12 341 l0 329
-29 29 c-17 17 -40 29 -55 29 -16 0 -26 6 -26 15 0 8 -4 15 -10 15 -5 0 -10
-7 -10 -15 0 -9 -9 -15 -25 -15 -16 0 -25 6 -25 15 0 8 -4 15 -10 15 -5 0 -10
-7 -10 -15 0 -9 -9 -15 -25 -15 -16 0 -25 6 -25 15 0 8 -4 15 -10 15 -5 0 -10
-7 -10 -15 0 -9 -9 -15 -25 -15 -16 0 -25 6 -25 15 0 8 -4 15 -10 15 -5 0 -10
-7 -10 -15 0 -9 -9 -15 -25 -15 -16 0 -25 6 -25 15 0 8 -4 15 -10 15 -5 0 -10
-7 -10 -15 0 -9 -9 -15 -25 -15 -16 0 -25 6 -25 15 0 8 -4 15 -10 15 -5 0 -10
-7 -10 -15 0 -9 -9 -15 -25 -15 -16 0 -25 6 -25 15 0 8 -4 15 -10 15 -5 0 -10
-7 -10 -15 0 -9 -9 -15 -25 -15 -16 0 -25 6 -25 15 0 8 -4 15 -10 15 -5 0 -10
-7 -10 -15z m0 -50 c0 -8 5 -15 10 -15 6 0 10 7 10 15 0 9 9 15 25 15 16 0 25
-6 25 -15 0 -8 5 -15 10 -15 6 0 10 7 10 15 0 9 9 15 25 15 16 0 25 -6 25 -15
0 -8 5 -15 10 -15 6 0 10 7 10 15 0 9 9 15 25 15 16 0 25 -6 25 -15 0 -8 5
-15 10 -15 6 0 10 7 10 15 0 9 9 15 25 15 16 0 25 -6 25 -15 0 -8 5 -15 10
-15 6 0 10 7 10 15 0 9 9 15 25 15 16 0 25 -6 25 -15 0 -8 5 -15 10 -15 6 0
10 7 10 15 0 9 9 15 25 15 16 0 25 -6 25 -15 0 -8 5 -15 10 -15 6 0 10 7 10
15 0 9 9 15 25 15 16 0 25 -6 25 -15 0 -8 5 -15 10 -15 6 0 10 7 10 15 0 23
46 18 70 -7 14 -16 20 -35 20 -70 0 -43 -2 -48 -22 -49 l-23 -2 23 -4 22 -4
-2 -272 -3 -272 -342 -3 -343 -2 0 275 0 275 303 2 302 3 -302 2 -303 3 0 50
c0 37 5 55 20 70 24 24 70 27 70 5z"/>
<path d="M220 764 c0 -21 4 -25 23 -22 14 2 23 11 25 26 3 18 -1 22 -22 22
-21 0 -26 -5 -26 -26z m38 4 c-6 -18 -28 -21 -28 -4 0 9 7 16 16 16 9 0 14 -5
12 -12z"/>
<path d="M740 764 c0 -21 4 -25 23 -22 14 2 23 11 25 26 3 18 -1 22 -22 22
-21 0 -26 -5 -26 -26z m38 4 c-6 -18 -28 -21 -28 -4 0 9 7 16 16 16 9 0 14 -5
12 -12z"/>
<path d="M778 683 c7 -3 16 -2 19 1 4 3 -2 6 -13 5 -11 0 -14 -3 -6 -6z"/>
<path d="M368 583 c6 -2 12 -16 12 -29 0 -19 -5 -24 -24 -24 -15 0 -26 7 -29
18 -4 13 -5 11 -6 -5 -1 -20 4 -23 34 -23 33 0 35 2 35 35 0 27 -4 35 -17 34
-11 0 -13 -3 -5 -6z"/>
<path d="M420 555 c0 -33 2 -35 35 -35 33 0 35 2 35 35 0 33 -2 35 -35 35 -33
0 -35 -2 -35 -35z m60 0 c0 -20 -5 -25 -25 -25 -20 0 -25 5 -25 25 0 20 5 25
25 25 20 0 25 -5 25 -25z"/>
<path d="M520 555 c0 -33 2 -35 35 -35 33 0 35 2 35 35 0 33 -2 35 -35 35 -33
0 -35 -2 -35 -35z m60 0 c0 -20 -5 -25 -25 -25 -20 0 -25 5 -25 25 0 20 5 25
25 25 20 0 25 -5 25 -25z"/>
<path d="M620 555 c0 -33 2 -35 35 -35 33 0 35 2 35 35 0 33 -2 35 -35 35 -33
0 -35 -2 -35 -35z m60 0 c0 -20 -5 -25 -25 -25 -20 0 -25 5 -25 25 0 20 5 25
25 25 20 0 25 -5 25 -25z"/>
<path d="M720 555 c0 -33 2 -35 35 -35 33 0 35 2 35 35 0 33 -2 35 -35 35 -33
0 -35 -2 -35 -35z m60 0 c0 -20 -5 -25 -25 -25 -20 0 -25 5 -25 25 0 20 5 25
25 25 20 0 25 -5 25 -25z"/>
<path d="M220 455 c0 -33 2 -35 35 -35 33 0 35 2 35 35 0 33 -2 35 -35 35 -33
0 -35 -2 -35 -35z m60 0 c0 -20 -5 -25 -25 -25 -20 0 -25 5 -25 25 0 20 5 25
25 25 20 0 25 -5 25 -25z"/>
<path d="M320 455 c0 -33 2 -35 35 -35 33 0 35 2 35 35 0 33 -2 35 -35 35 -33
0 -35 -2 -35 -35z m60 0 c0 -20 -5 -25 -25 -25 -20 0 -25 5 -25 25 0 20 5 25
25 25 20 0 25 -5 25 -25z"/>
<path d="M420 455 c0 -33 2 -35 35 -35 33 0 35 2 35 35 0 33 -2 35 -35 35 -33
0 -35 -2 -35 -35z m60 0 c0 -20 -5 -25 -25 -25 -20 0 -25 5 -25 25 0 20 5 25
25 25 20 0 25 -5 25 -25z"/>
<path d="M520 455 c0 -33 2 -35 35 -35 33 0 35 2 35 35 0 33 -2 35 -35 35 -33
0 -35 -2 -35 -35z m60 0 c0 -20 -5 -25 -25 -25 -20 0 -25 5 -25 25 0 20 5 25
25 25 20 0 25 -5 25 -25z"/>
<path d="M620 455 c0 -33 2 -35 35 -35 33 0 35 2 35 35 0 33 -2 35 -35 35 -33
0 -35 -2 -35 -35z m60 0 c0 -20 -5 -25 -25 -25 -20 0 -25 5 -25 25 0 20 5 25
25 25 20 0 25 -5 25 -25z"/>
<path d="M720 455 c0 -33 2 -35 35 -35 33 0 35 2 35 35 0 33 -2 35 -35 35 -33
0 -35 -2 -35 -35z m60 0 c0 -20 -5 -25 -25 -25 -20 0 -25 5 -25 25 0 20 5 25
25 25 20 0 25 -5 25 -25z"/>
<path d="M220 355 c0 -33 2 -35 35 -35 33 0 35 2 35 35 0 33 -2 35 -35 35 -33
0 -35 -2 -35 -35z m60 0 c0 -20 -5 -25 -25 -25 -20 0 -25 5 -25 25 0 20 5 25
25 25 20 0 25 -5 25 -25z"/>
<path d="M320 355 c0 -33 2 -35 35 -35 33 0 35 2 35 35 0 33 -2 35 -35 35 -33
0 -35 -2 -35 -35z m60 0 c0 -20 -5 -25 -25 -25 -20 0 -25 5 -25 25 0 20 5 25
25 25 20 0 25 -5 25 -25z"/>
<path d="M420 355 c0 -33 2 -35 35 -35 33 0 35 2 35 35 0 33 -2 35 -35 35 -33
0 -35 -2 -35 -35z m60 0 c0 -20 -5 -25 -25 -25 -20 0 -25 5 -25 25 0 20 5 25
25 25 20 0 25 -5 25 -25z"/>
<path d="M520 355 c0 -33 2 -35 35 -35 33 0 35 2 35 35 0 33 -2 35 -35 35 -33
0 -35 -2 -35 -35z m60 0 c0 -20 -5 -25 -25 -25 -20 0 -25 5 -25 25 0 20 5 25
25 25 20 0 25 -5 25 -25z"/>
<path d="M620 355 c0 -33 2 -35 35 -35 33 0 35 2 35 35 0 33 -2 35 -35 35 -33
0 -35 -2 -35 -35z m60 0 c0 -20 -5 -25 -25 -25 -20 0 -25 5 -25 25 0 20 5 25
25 25 20 0 25 -5 25 -25z"/>
<path d="M720 355 c0 -33 2 -35 35 -35 33 0 35 2 35 35 0 33 -2 35 -35 35 -33
0 -35 -2 -35 -35z m60 0 c0 -20 -5 -25 -25 -25 -20 0 -25 5 -25 25 0 20 5 25
25 25 20 0 25 -5 25 -25z"/>
<path d="M220 255 c0 -33 2 -35 35 -35 33 0 35 2 35 35 0 33 -2 35 -35 35 -33
0 -35 -2 -35 -35z m60 0 c0 -20 -5 -25 -25 -25 -20 0 -25 5 -25 25 0 20 5 25
25 25 20 0 25 -5 25 -25z"/>
<path d="M320 255 c0 -33 2 -35 35 -35 33 0 35 2 35 35 0 33 -2 35 -35 35 -33
0 -35 -2 -35 -35z m60 0 c0 -20 -5 -25 -25 -25 -20 0 -25 5 -25 25 0 20 5 25
25 25 20 0 25 -5 25 -25z"/>
<path d="M420 255 c0 -33 2 -35 35 -35 33 0 35 2 35 35 0 33 -2 35 -35 35 -33
0 -35 -2 -35 -35z m60 0 c0 -20 -5 -25 -25 -25 -20 0 -25 5 -25 25 0 20 5 25
25 25 20 0 25 -5 25 -25z"/>
<path d="M520 255 c0 -33 2 -35 33 -34 30 2 30 2 5 6 -22 3 -28 10 -28 29 0
33 46 35 53 2 4 -20 4 -19 6 5 1 25 -2 27 -34 27 -33 0 -35 -2 -35 -35z"/>
</g>
</svg>
